<?xml version="1.0" standalone="no"?>
<!DOCTYPE svg PUBLIC "-//W3C//DTD SVG 20010904//EN"
 "http://www.w3.org/TR/2001/REC-SVG-20010904/DTD/svg10.dtd">
<svg version="1.0" xmlns="http://www.w3.org/2000/svg"
 width="400.000000pt" height="400.000000pt" viewBox="0 0 400.000000 400.000000"
 preserveAspectRatio="xMidYMid meet">
<metadata>
Created by potrace 1.11, written by Peter Selinger 2001-2013
</metadata>
<g transform="translate(0.000000,400.000000) scale(0.100000,-0.100000)"
fill="#000000" stroke="none">
<path d="M865 3244 c-196 -171 -326 -334 -425 -532 -46 -92 -111 -266 -125
-337 -61 -297 -57 -588 9 -843 68 -257 231 -539 417 -718 129 -124 152 -144
163 -144 6 0 27 14 46 31 19 17 52 46 74 64 l39 32 -80 79 c-247 245 -395 511
-439 789 -3 22 -7 42 -9 45 -2 3 -6 45 -10 94 -41 515 101 912 446 1250 l90
89 -23 21 c-13 12 -48 42 -78 68 l-55 46 -40 -34z"/>
<path d="M3034 3237 c-27 -23 -62 -54 -78 -68 l-28 -26 95 -95 c308 -309 445
-639 445 -1078 0 -229 -25 -369 -100 -565 -73 -191 -192 -364 -367 -533 l-76
-74 30 -25 c17 -14 50 -43 74 -65 24 -21 50 -38 57 -36 23 5 201 176 263 251
169 207 295 471 336 702 4 22 9 51 12 65 36 195 20 530 -34 720 -94 329 -251
578 -513 810 l-66 59 -50 -42z"/>
<path d="M1679 2594 c-56 -17 -139 -88 -175 -151 -15 -24 -29 -41 -32 -38 -4
3 -11 43 -17 88 l-10 82 -113 3 -112 3 0 -706 0 -705 140 0 140 0 0 504 0 505
35 60 c19 33 52 73 72 90 71 59 161 47 199 -27 18 -35 19 -67 22 -584 l3 -548
123 0 124 0 0 503 0 503 36 61 c43 73 94 120 140 128 82 16 137 -38 152 -150
1 -11 3 -251 3 -532 l1 -513 140 0 141 0 -2 543 c-1 583 -5 629 -54 732 -53
111 -146 167 -270 164 -120 -3 -199 -52 -276 -172 -32 -49 -40 -56 -45 -41
-35 100 -86 167 -149 195 -49 22 -150 24 -216 3z"/>
</g>
</svg>
